<svg xmlns="http://www.w3.org/2000/svg" viewBox="0 0 1200 1500" fill="none">
  <rect width="1200" height="1500" fill="#06080A" />
  <rect x="92" y="92" width="1016" height="1316" stroke="#E7E0D3" opacity="0.14" />
  <ellipse cx="602" cy="1176" rx="434" ry="106" fill="url(#floor)" />
  <ellipse cx="672" cy="422" rx="328" ry="298" fill="url(#glow)" />
  <path d="M172 1010C258 1003 352 984 454 953L578 914C648 892 714 879 777 875L901 867C949 864 989 878 1022 908L1075 938C1107 956 1130 984 1144 1022H1090C1077 998 1059 980 1037 968L982 938C961 920 933 911 897 912L772 920C717 923 658 935 595 955L471 994C367 1026 269 1046 178 1054L172 1010Z" fill="url(#body)" />
  <path d="M330 964C430 940 518 910 594 874L666 840C713 818 763 804 817 801H888C935 801 978 816 1018 846L1070 884" stroke="#FCF8F1" stroke-opacity="0.24" stroke-width="12" stroke-linecap="round" />
  <path d="M596 918H899" stroke="#0D1218" stroke-opacity="0.72" stroke-width="58" stroke-linecap="round" />
  <circle cx="394" cy="1054" r="82" fill="#090C10" />
  <circle cx="394" cy="1054" r="54" stroke="#C4CBD4" stroke-opacity="0.34" stroke-width="8" />
  <circle cx="910" cy="1054" r="82" fill="#090C10" />
  <circle cx="910" cy="1054" r="54" stroke="#C4CBD4" stroke-opacity="0.34" stroke-width="8" />
  <path d="M314 1086H995" stroke="#F1ECE4" stroke-opacity="0.1" stroke-width="4" />
  <path d="M878 564L965 566" stroke="#D8DFE6" stroke-opacity="0.24" stroke-width="10" stroke-linecap="round" filter="url(#light)" />
  <defs>
    <linearGradient id="body" x1="246" y1="869" x2="1088" y2="1024" gradientUnits="userSpaceOnUse">
      <stop stop-color="#2E3842" />
      <stop offset="0.5" stop-color="#AEB9C5" />
      <stop offset="1" stop-color="#1E242A" />
    </linearGradient>
    <radialGradient id="glow" cx="0" cy="0" r="1" gradientUnits="userSpaceOnUse" gradientTransform="translate(672 422) rotate(90) scale(298 328)">
      <stop stop-color="#BFC7D1" stop-opacity="0.34" />
      <stop offset="1" stop-color="#06080A" stop-opacity="0" />
    </radialGradient>
    <radialGradient id="floor" cx="0" cy="0" r="1" gradientUnits="userSpaceOnUse" gradientTransform="translate(602 1176) rotate(90) scale(106 434)">
      <stop stop-color="#C8D0DA" stop-opacity="0.16" />
      <stop offset="1" stop-color="#06080A" stop-opacity="0" />
    </radialGradient>
    <filter id="light" x="838" y="526" width="167" height="78" color-interpolation-filters="sRGB">
      <feGaussianBlur stdDeviation="14" />
    </filter>
  </defs>
</svg>

